STARTFONT 2.1
FONT -FontForge-Untitled1-Regular-R-Normal--12-120-75-75-C-120-ISO8859-1
SIZE 12 75 75
FONTBOUNDINGBOX 12 12 0 -3
COMMENT "Generated by fontforge, http://fontforge.sourceforge.net"
COMMENT "Copyright (c) 2021, Gmoli"
STARTPROPERTIES 29
FOUNDRY "FontForge"
FAMILY_NAME "Untitled1"
WEIGHT_NAME "Regular"
SLANT "R"
SETWIDTH_NAME "Normal"
ADD_STYLE_NAME ""
PIXEL_SIZE 12
POINT_SIZE 120
RESOLUTION_X 75
RESOLUTION_Y 75
SPACING "C"
AVERAGE_WIDTH 120
CHARSET_REGISTRY "ISO8859"
CHARSET_ENCODING "1"
FONTNAME_REGISTRY ""
CHARSET_COLLECTIONS "ISOLatin1Encoding"
FONT_NAME "Untitled1"
FACE_NAME "Untitled1"
COPYRIGHT "Copyright (c) 2021, Gmoli"
FONT_VERSION "001.000"
FONT_ASCENT 9
FONT_DESCENT 3
UNDERLINE_POSITION -1
UNDERLINE_THICKNESS 1
RAW_ASCENT 800
RAW_DESCENT 200
FIGURE_WIDTH -1
AVG_LOWERCASE_WIDTH 120
AVG_UPPERCASE_WIDTH 120
ENDPROPERTIES
CHARS 8
STARTCHAR C
ENCODING 67
SWIDTH 1000 0
DWIDTH 12 0
BBX 12 12 0 -3
BITMAP
7FE0
FFF0
C000
C000
C000
C000
C000
C000
C000
C000
FFF0
7FE0
ENDCHAR
STARTCHAR E
ENCODING 69
SWIDTH 1000 0
DWIDTH 12 0
BBX 12 12 0 -3
BITMAP
7FE0
FFF0
C030
C030
C030
DFF0
DFE0
C000
C000
C000
FFE0
7FE0
ENDCHAR
STARTCHAR F
ENCODING 70
SWIDTH 1000 0
DWIDTH 12 0
BBX 12 12 0 -3
BITMAP
7FF0
FFE0
C000
C000
C000
FFE0
FFC0
C000
C000
C000
C000
4000
ENDCHAR
STARTCHAR L
ENCODING 76
SWIDTH 1000 0
DWIDTH 12 0
BBX 12 12 0 -3
BITMAP
4000
C000
C000
C000
C000
C000
C000
C000
C000
C000
FFF0
7FE0
ENDCHAR
STARTCHAR R
ENCODING 82
SWIDTH 1000 0
DWIDTH 12 0
BBX 12 12 0 -3
BITMAP
7FF0
FFE0
C000
C000
C000
C000
C000
C000
C000
C000
C000
4000
ENDCHAR
STARTCHAR T
ENCODING 84
SWIDTH 1000 0
DWIDTH 12 0
BBX 12 12 0 -3
BITMAP
4000
C000
C000
C000
FF80
FF00
C000
C000
C000
C000
FFF0
7FE0
ENDCHAR
STARTCHAR U
ENCODING 85
SWIDTH 1000 0
DWIDTH 12 0
BBX 12 12 0 -3
BITMAP
C030
C030
C030
C030
C030
C030
C030
C030
C030
C030
FFF0
7FF0
ENDCHAR
STARTCHAR i
ENCODING 105
SWIDTH 1000 0
DWIDTH 12 0
BBX 2 12 2 -3
BITMAP
C0
C0
C0
C0
C0
C0
C0
C0
C0
C0
C0
C0
ENDCHAR
ENDFONT
